<?xml version="1.0" standalone="no"?>
<!DOCTYPE svg PUBLIC "-//W3C//DTD SVG 20010904//EN"
 "http://www.w3.org/TR/2001/REC-SVG-20010904/DTD/svg10.dtd">
<svg version="1.0" xmlns="http://www.w3.org/2000/svg"
 width="7500.000000pt" height="1871.000000pt" viewBox="0 0 7500.000000 1871.000000"
 preserveAspectRatio="xMidYMid meet">

<g transform="translate(0.000000,1871.000000) scale(0.100000,-0.100000)"
fill="#000000" stroke="none">
<path d="M11545 18703 c-168 -4 -381 -23 -565 -49 -946 -135 -1812 -536 -2585
-1197 -158 -135 -412 -390 -556 -557 -775 -900 -1280 -2037 -1444 -3252 -47
-348 -73 -825 -60 -1072 l7 -135 336 -3 c319 -4 341 -5 407 -27 133 -44 223
-98 315 -191 96 -96 141 -166 181 -280 43 -121 49 -199 49 -635 l0 -404 463
-3 462 -4 80 -27 c261 -88 441 -279 511 -542 18 -65 19 -115 19 -675 0 -602 0
-605 -23 -684 -77 -267 -277 -466 -539 -538 -72 -20 -108 -22 -465 -26 -214
-2 -388 -6 -388 -9 0 -9 106 -157 219 -308 294 -392 619 -776 1028 -1218 l174
-187 100 0 99 0 0 283 c0 322 8 378 77 510 56 108 182 231 293 285 157 77 156
77 680 77 523 0 520 0 679 -76 69 -32 101 -56 172 -128 72 -72 96 -103 128
-172 69 -145 73 -170 78 -491 l5 -286 302 -4 c282 -4 305 -6 366 -27 109 -38
181 -83 265 -163 91 -87 143 -168 183 -283 l27 -80 0 -500 0 -500 -28 -80
c-63 -179 -186 -319 -349 -399 -137 -67 -198 -76 -508 -76 -156 0 -260 -4
-260 -9 0 -18 592 -487 1005 -797 672 -504 1565 -1116 1969 -1349 951 -547
2095 -750 3186 -564 646 110 1228 336 1793 696 1625 1034 3249 2327 4596 3658
1446 1430 2244 2523 2757 3776 184 451 320 900 413 1365 41 205 85 486 96 609
l5 70 -53 -150 c-319 -894 -777 -1433 -1423 -1676 -949 -357 -2272 3 -3859
1049 -1467 966 -3147 2508 -4829 4432 -98 113 -226 259 -284 325 -162 185
-686 702 -888 878 -301 262 -581 480 -859 669 -1164 794 -2363 1181 -3560
1151z"/>
<path d="M33787 18370 c-547 -53 -1002 -368 -1232 -853 -165 -347 -215 -805
-134 -1224 68 -355 231 -646 475 -851 198 -167 421 -267 704 -319 118 -21 447
-24 560 -5 111 20 249 58 332 93 224 95 418 261 494 424 l24 50 0 531 c0 399
-3 533 -12 542 -37 37 -232 -30 -285 -98 -9 -11 -12 -124 -13 -453 0 -503 5
-471 -98 -580 -98 -103 -232 -172 -421 -220 -116 -29 -403 -31 -528 -4 -166
36 -313 96 -438 180 -78 53 -204 175 -266 258 -277 374 -329 1024 -120 1508
110 257 319 484 558 609 369 192 828 185 1184 -17 49 -28 100 -51 113 -51 30
0 100 76 116 126 10 29 9 39 -9 68 -66 107 -324 231 -561 270 -120 20 -328 27
-443 16z"/>
<path d="M36705 18374 c-304 -21 -591 -105 -674 -199 l-31 -36 0 -1489 0
-1489 22 -12 c33 -18 206 -16 243 2 l30 14 5 530 5 530 285 3 285 2 70 -34
c132 -66 254 -188 415 -417 240 -340 309 -427 408 -512 171 -148 367 -181 534
-90 80 44 110 76 106 115 -3 33 -3 33 -70 40 -222 22 -354 130 -638 523 -160
221 -222 296 -313 382 l-75 69 95 27 c354 100 601 348 701 704 26 94 27 107
26 323 0 210 -2 231 -26 321 -104 384 -378 598 -859 669 -123 18 -426 31 -544
24z m515 -288 c341 -71 520 -235 581 -531 18 -84 20 -124 16 -255 -7 -218 -42
-333 -144 -477 -120 -170 -354 -283 -647 -312 -154 -16 -698 -15 -714 1 -9 9
-12 186 -12 734 l0 722 39 35 c45 41 130 71 256 92 120 19 516 13 625 -9z"/>
<path d="M43225 18370 c-253 -18 -483 -82 -592 -166 -68 -52 -63 70 -63 -1564
l0 -1480 28 -12 c41 -16 201 -15 237 3 l30 14 3 502 2 501 75 -23 c149 -46
255 -59 485 -59 164 -1 237 4 310 17 495 92 833 399 940 851 59 248 41 556
-43 766 -189 468 -696 701 -1412 650z m366 -270 c409 -42 660 -214 757 -520
32 -100 42 -173 42 -306 0 -462 -239 -781 -670 -894 -117 -30 -364 -38 -505
-17 -129 20 -251 59 -303 97 l-42 30 0 726 c0 626 2 729 15 754 53 102 380
162 706 130z"/>
<path d="M46750 18369 c-540 -52 -970 -376 -1170 -883 -97 -246 -142 -586
-121 -906 23 -331 89 -583 212 -805 194 -351 493 -563 912 -647 148 -30 462
-32 602 -5 457 89 794 346 985 751 124 262 174 513 173 876 0 232 -14 354 -59
535 -111 439 -375 774 -748 951 -167 79 -302 115 -501 134 -122 11 -161 11
-285 -1z m310 -283 c494 -75 830 -422 941 -972 27 -138 38 -473 19 -621 -43
-349 -157 -610 -351 -805 -243 -244 -590 -349 -962 -293 -504 76 -832 441
-924 1029 -26 164 -23 491 5 646 58 318 177 559 363 736 236 224 579 329 909
280z"/>
<path d="M39270 18327 l-25 -13 0 -1099 c0 -1033 1 -1106 19 -1200 33 -179
104 -360 189 -484 90 -133 252 -265 407 -332 367 -158 896 -122 1197 82 190
129 338 340 407 581 56 193 56 203 56 1376 l0 1080 -29 12 c-40 16 -232 10
-254 -9 -16 -12 -17 -94 -17 -985 0 -577 -4 -1016 -10 -1081 -32 -342 -140
-583 -323 -721 -80 -60 -136 -88 -244 -121 -81 -24 -102 -27 -258 -27 -144 0
-182 3 -250 22 -154 42 -277 119 -372 233 -55 67 -136 230 -162 329 -50 183
-51 206 -51 1300 0 564 -4 1030 -8 1037 -4 6 -20 17 -35 22 -39 15 -206 14
-237 -2z"/>
<path d="M33795 12480 c-720 -44 -1296 -364 -1549 -860 -120 -235 -167 -481
-145 -763 35 -469 275 -800 760 -1047 174 -89 310 -141 699 -270 501 -166 633
-226 752 -342 78 -75 110 -146 116 -254 8 -144 -38 -254 -149 -359 -153 -144
-386 -203 -694 -176 -398 36 -719 154 -1156 427 -219 136 -273 152 -330 95
l-29 -29 0 -149 c0 -301 48 -610 115 -743 48 -95 200 -206 438 -320 426 -204
883 -298 1320 -270 340 22 591 86 849 216 165 84 280 166 403 289 314 314 464
752 415 1220 -33 325 -136 550 -350 766 -239 241 -493 366 -1129 559 -523 158
-637 206 -752 320 -82 81 -109 144 -109 256 0 251 177 414 509 469 83 14 139
16 285 12 281 -9 432 -49 744 -197 214 -102 229 -104 313 -24 74 72 165 207
234 349 90 185 94 224 34 314 -48 71 -114 132 -224 206 -270 179 -605 279
-1022 305 -92 5 -181 9 -198 8 -16 0 -84 -4 -150 -8z"/>
<path d="M58614 12480 c-666 -38 -1279 -298 -1710 -725 -369 -366 -596 -829
-686 -1400 -20 -123 -22 -179 -22 -465 0 -365 13 -486 79 -745 244 -954 995
-1566 2091 -1705 44 -6 159 -15 256 -20 477 -26 934 63 1318 255 176 88 332
201 390 281 77 108 163 449 185 734 8 98 -6 147 -49 176 -46 30 -103 15 -234
-62 -355 -208 -603 -303 -943 -358 -96 -16 -331 -23 -462 -15 -716 48 -1177
421 -1307 1059 -42 206 -49 480 -20 720 60 477 255 834 568 1038 212 138 458
202 776 202 331 0 542 -42 831 -167 83 -35 170 -67 195 -70 39 -4 51 -1 87 26
80 58 201 232 289 416 93 193 86 252 -45 388 -192 200 -540 350 -952 412 -96
15 -406 36 -474 33 -16 0 -89 -4 -161 -8z"/>
<path d="M68020 12480 c-700 -46 -1248 -340 -1523 -815 -63 -109 -121 -267
-148 -405 -29 -147 -31 -397 -5 -535 76 -407 304 -687 736 -909 185 -95 357
-162 700 -274 335 -109 449 -152 560 -207 265 -133 363 -304 305 -530 -30
-113 -115 -223 -230 -294 -118 -74 -343 -119 -535 -107 -416 27 -730 134
-1176 403 -109 66 -213 128 -231 137 -45 22 -104 21 -136 -5 -43 -33 -49 -77
-37 -291 15 -277 46 -466 100 -611 71 -190 563 -448 1070 -561 349 -77 744
-79 1090 -5 232 51 498 167 679 296 290 208 496 518 572 863 32 148 44 323 30
480 -44 525 -302 878 -821 1123 -166 79 -325 136 -643 231 -155 47 -336 104
-402 126 -299 103 -447 226 -473 393 -26 164 53 334 196 426 139 89 329 126
597 118 275 -8 415 -45 731 -193 225 -105 238 -106 319 -33 127 117 315 461
315 578 0 65 -121 201 -264 296 -341 226 -852 339 -1376 305z"/>
<path d="M38165 12450 c-251 -18 -384 -67 -449 -167 -24 -38 -1684 -4527
-1706 -4615 -17 -66 -7 -94 40 -118 85 -43 200 -54 570 -55 365 0 464 8 568
47 95 35 100 44 221 357 61 156 118 294 126 308 9 13 27 28 41 33 15 6 336 10
810 10 846 0 827 1 855 -51 6 -12 57 -144 114 -295 56 -151 110 -285 119 -299
57 -87 275 -120 740 -112 308 5 431 19 506 57 63 32 64 54 11 205 -59 168
-1640 4434 -1662 4485 -58 132 -191 189 -491 210 -159 11 -250 11 -413 0z
m246 -1660 c10 -6 25 -23 33 -38 8 -15 121 -355 250 -755 161 -496 234 -735
230 -752 -3 -13 -15 -32 -26 -42 -19 -17 -52 -18 -492 -21 -523 -4 -539 -2
-561 52 -13 32 -5 60 220 757 129 398 241 738 251 755 14 28 44 51 67 53 5 1
17 -4 28 -9z"/>
<path d="M52074 12450 c-255 -18 -401 -75 -455 -181 -29 -57 -1677 -4528
-1695 -4600 -14 -55 -14 -62 1 -85 21 -32 68 -52 170 -72 63 -12 157 -16 445
-16 314 -1 377 2 454 17 115 24 160 42 193 81 18 20 67 132 137 311 60 154
115 290 123 301 8 12 26 27 41 33 19 8 254 11 826 9 l799 -3 25 -31 c13 -17
73 -160 132 -317 59 -158 113 -294 120 -302 23 -28 116 -65 205 -81 64 -12
172 -18 372 -21 387 -7 585 12 676 64 41 24 46 67 17 154 -87 256 -1687 4552
-1707 4581 -25 38 -92 85 -148 106 -133 50 -434 72 -731 52z m261 -1673 c22
-19 64 -138 266 -761 131 -406 239 -747 239 -757 0 -10 -11 -31 -24 -46 l-24
-28 -495 0 -495 0 -26 24 c-15 15 -26 35 -26 51 0 15 63 222 141 461 342 1059
330 1021 359 1051 34 34 51 35 85 5z"/>
<path d="M63068 12450 c-237 -15 -390 -71 -447 -163 -17 -28 -1622 -4362
-1691 -4567 -27 -81 -24 -137 10 -161 64 -47 258 -69 601 -69 448 0 617 36
666 142 11 24 64 158 119 298 75 196 106 263 130 288 l32 32 801 0 801 0 30
-27 c25 -23 50 -81 134 -304 58 -153 110 -288 117 -300 16 -31 35 -46 88 -70
85 -38 201 -51 498 -56 389 -7 613 14 683 66 41 29 38 78 -13 222 -150 421
-1653 4462 -1673 4496 -61 105 -194 154 -467 173 -157 11 -244 11 -419 0z
m262 -1678 c19 -20 39 -63 65 -143 20 -63 126 -391 236 -730 109 -338 199
-625 199 -636 0 -12 -11 -35 -24 -50 l-24 -28 -497 0 -497 0 -24 28 c-13 15
-24 37 -24 49 0 11 77 257 171 546 297 918 308 950 336 972 34 27 49 25 83 -8z"/>
<path d="M72390 12450 c-291 -22 -423 -87 -480 -236 -64 -172 -1641 -4449
-1659 -4502 -33 -97 -28 -133 23 -159 96 -50 293 -67 675 -60 309 6 401 17
495 60 30 14 62 37 71 51 9 14 65 149 125 300 59 151 115 287 124 301 9 14 28
30 42 35 39 15 1586 13 1618 -2 14 -6 32 -21 41 -34 8 -13 62 -150 121 -306
58 -156 113 -291 122 -302 74 -82 288 -112 742 -103 373 7 494 28 535 91 15
23 15 30 1 86 -9 33 -394 1080 -855 2327 -618 1667 -848 2276 -869 2302 -85
106 -231 146 -574 155 -101 2 -235 1 -298 -4z m265 -1676 c17 -19 49 -103 104
-273 44 -135 152 -468 240 -740 153 -471 159 -495 147 -526 -9 -22 -25 -36
-46 -44 -23 -7 -176 -11 -494 -11 -419 0 -464 2 -495 18 -20 9 -38 28 -43 43
-7 21 39 172 228 755 129 400 242 741 250 756 27 53 72 62 109 22z"/>
<path d="M44898 12420 c-129 -10 -209 -26 -266 -52 -79 -37 -72 96 -72 -1456
0 -854 -4 -1392 -9 -1390 -5 2 -485 636 -1066 1411 -581 774 -1067 1415 -1081
1423 -51 34 -135 45 -369 51 -324 8 -476 -17 -547 -88 l-28 -27 0 -2325 c0
-1670 3 -2333 11 -2356 15 -42 77 -77 170 -97 101 -21 521 -30 669 -15 144 15
231 42 264 82 l26 31 0 1344 c0 739 4 1344 8 1344 4 0 484 -617 1066 -1370
841 -1090 1065 -1374 1095 -1389 61 -32 146 -43 371 -48 308 -8 462 18 532 88
l28 28 -2 2349 c-3 2334 -3 2350 -23 2372 -53 60 -195 88 -473 94 -109 3 -245
1 -304 -4z"/>
<path d="M46510 12384 c-35 -30 -72 -98 -88 -164 -35 -145 -39 -449 -7 -616
19 -100 66 -199 105 -219 24 -13 100 -15 482 -15 249 0 471 -5 492 -10 21 -5
48 -18 60 -30 l21 -21 5 -1834 c5 -1827 5 -1834 25 -1862 29 -39 114 -79 215
-100 70 -15 134 -18 365 -18 316 0 415 13 516 66 99 53 89 -156 89 1898 0
1958 -3 1862 52 1893 18 10 132 14 517 18 l493 5 33 38 c64 74 95 230 95 482
0 257 -30 403 -99 475 l-38 40 -1651 0 -1650 0 -32 -26z"/>
<path d="M5781 11943 c-26 -9 -65 -36 -92 -63 -80 -80 -79 -72 -79 -691 0
-519 -1 -540 -21 -593 -14 -39 -35 -68 -70 -100 -86 -78 -72 -76 -684 -76
-619 0 -604 2 -687 -81 -80 -80 -79 -71 -76 -710 3 -550 3 -554 25 -595 30
-56 79 -103 133 -128 44 -20 64 -21 615 -26 432 -4 577 -8 599 -18 52 -23 101
-69 132 -124 l29 -53 5 -575 c5 -569 5 -575 27 -616 30 -56 79 -103 133 -128
44 -21 58 -21 610 -21 l565 0 47 23 c26 13 64 42 84 64 72 80 68 50 74 688 5
518 7 578 22 606 29 52 68 93 117 122 l46 27 575 5 575 5 47 23 c26 13 64 42
84 64 72 80 69 54 72 647 2 363 -1 551 -8 587 -16 76 -63 141 -130 178 l-55
31 -575 5 c-572 5 -575 5 -617 27 -51 28 -105 82 -130 131 -17 34 -18 81 -23
608 l-5 570 -30 60 c-33 64 -95 115 -163 134 -23 6 -239 10 -582 9 -468 0
-551 -3 -589 -16z"/>
<path d="M2615 6180 c-27 -11 -61 -49 -74 -83 -7 -18 -11 -133 -11 -305 0
-396 24 -372 -375 -372 -298 0 -317 -3 -365 -55 l-25 -27 -3 -288 c-3 -322 0
-343 60 -380 31 -19 50 -20 317 -20 268 0 285 -1 320 -21 66 -37 65 -33 71
-364 5 -273 7 -302 24 -328 37 -55 49 -57 369 -57 404 0 377 -27 377 377 0
306 3 323 63 367 27 20 45 21 325 26 315 5 322 6 361 56 20 26 21 38 21 321 0
320 -2 332 -57 369 -26 17 -55 19 -328 24 -331 6 -327 5 -364 71 -20 35 -21
52 -21 320 0 404 25 379 -387 378 -153 0 -287 -4 -298 -9z"/>
<path d="M46055 5069 c-571 -49 -1061 -198 -1180 -359 l-25 -34 0 -2218 0
-2217 30 -34 c35 -40 103 -72 204 -95 57 -13 130 -16 366 -17 323 0 409 10
517 61 100 48 92 -12 95 741 3 556 5 663 17 677 13 15 31 17 135 14 155 -4
208 -26 305 -127 82 -84 149 -198 320 -537 72 -144 164 -310 203 -369 80 -120
208 -261 302 -331 223 -168 532 -236 855 -188 413 61 861 364 861 582 0 38 -5
55 -25 76 -29 32 -17 30 -200 31 -133 0 -157 3 -208 24 -197 79 -365 256 -687
726 -193 282 -267 373 -352 430 l-49 33 73 40 c519 285 861 735 948 1249 25
142 27 404 5 538 -86 531 -448 931 -1040 1150 -193 72 -475 131 -735 155 -134
12 -590 11 -735 -1z m635 -909 c315 -36 503 -183 570 -446 32 -124 44 -286 31
-418 -22 -230 -94 -400 -221 -526 -144 -143 -317 -216 -574 -241 -248 -23
-398 29 -423 148 -4 21 -8 322 -8 668 l0 630 23 43 c54 100 186 148 422 151
52 0 133 -4 180 -9z"/>
<path d="M62295 5074 c-16 -2 -73 -9 -125 -15 -457 -51 -918 -232 -1280 -503
-184 -137 -393 -357 -518 -544 -213 -317 -339 -652 -404 -1072 -18 -124 -22
-188 -22 -435 -1 -307 7 -411 49 -620 96 -477 293 -854 611 -1167 115 -113
193 -176 324 -263 345 -229 765 -371 1265 -426 144 -16 533 -16 660 0 402 50
768 178 1044 363 121 82 192 159 230 251 70 170 132 477 135 664 1 108 0 113
-25 138 -16 16 -41 29 -66 32 -46 6 -80 -9 -265 -119 -223 -131 -431 -218
-649 -272 -447 -108 -935 -75 -1296 90 -304 138 -543 412 -647 742 -140 445
-97 1071 101 1467 172 342 449 552 841 635 128 27 377 37 548 21 241 -22 392
-62 640 -167 198 -84 214 -84 296 -6 109 104 286 402 317 536 20 82 -15 151
-131 262 -198 190 -528 327 -940 390 -98 15 -616 29 -693 18z"/>
<path d="M51455 5039 c-135 -18 -261 -67 -313 -121 -11 -13 -32 -48 -46 -78
-24 -54 -1582 -4272 -1657 -4487 -44 -127 -47 -155 -19 -183 26 -26 56 -38
150 -58 102 -22 785 -24 900 -3 102 18 171 45 203 79 18 19 63 121 138 311 60
156 116 293 125 305 8 13 26 28 40 34 36 17 1582 17 1618 0 14 -6 33 -22 42
-36 9 -13 62 -147 119 -298 56 -151 110 -285 119 -299 24 -36 101 -71 202 -92
127 -26 807 -26 926 -1 148 32 180 61 160 146 -10 44 -1633 4437 -1688 4569
-44 105 -128 163 -284 198 -59 14 -139 18 -370 20 -162 2 -326 -1 -365 -6z
m355 -1654 c36 -19 22 20 295 -821 215 -662 227 -703 214 -730 -26 -54 -25
-54 -539 -54 -520 0 -517 0 -536 59 -10 30 7 86 183 629 106 328 214 660 239
737 35 109 52 146 75 168 34 32 32 31 69 12z"/>
<path d="M66716 5039 c-201 -26 -318 -89 -364 -197 -11 -26 -395 -1062 -852
-2302 -901 -2440 -866 -2339 -810 -2381 71 -54 265 -73 677 -66 248 4 335 9
393 22 90 20 157 52 182 85 10 14 67 150 126 303 60 153 120 293 134 310 l25
32 811 0 812 0 26 -26 c18 -19 59 -113 135 -314 62 -166 118 -298 131 -313 31
-34 87 -57 188 -79 74 -16 135 -18 460 -18 394 0 479 7 570 46 54 24 60 32 60
87 0 42 -57 196 -1495 4077 -108 292 -207 549 -221 573 -48 82 -175 140 -354
162 -101 12 -536 11 -634 -1z m352 -1655 c12 -8 28 -27 36 -42 25 -48 476
-1453 476 -1482 0 -15 -9 -38 -19 -51 l-19 -24 -502 0 -502 0 -24 28 c-13 15
-24 35 -24 43 0 23 465 1455 484 1493 14 27 41 47 66 50 3 1 16 -6 28 -15z"/>
<path d="M58335 5020 c-212 -12 -337 -48 -364 -107 -8 -17 -11 -421 -11 -1408
0 -808 -4 -1385 -9 -1385 -5 0 -485 635 -1066 1411 -582 775 -1067 1417 -1079
1424 -12 8 -53 22 -91 31 -104 26 -579 27 -680 1 -77 -20 -149 -58 -165 -87
-7 -12 -10 -784 -10 -2340 0 -2579 -6 -2371 69 -2409 87 -45 151 -53 451 -58
322 -5 454 7 545 52 88 43 79 -94 85 1413 l5 1342 1056 -1367 c580 -752 1066
-1375 1080 -1385 53 -38 133 -50 386 -55 328 -7 462 14 535 84 l28 27 0 2340
c0 2274 -1 2342 -19 2372 -26 43 -95 72 -209 88 -126 18 -361 25 -537 16z"/>
<path d="M40840 4988 c-24 -13 -53 -36 -64 -51 l-21 -28 -3 -2339 -2 -2338 25
-30 c30 -36 99 -67 202 -90 64 -14 130 -17 373 -17 323 0 409 10 518 62 94 44
86 -30 92 875 l5 798 28 27 27 28 675 5 674 5 30 29 c36 35 67 105 88 200 24
107 24 452 0 565 -20 95 -52 164 -92 201 l-27 25 -674 5 -674 5 -27 28 -28 27
-3 500 -3 500 388 0 c757 0 1123 -33 1459 -130 190 -54 227 -53 260 13 15 28
16 59 11 252 -12 430 -75 682 -203 812 -89 90 37 83 -1574 83 l-1416 0 -44
-22z"/>
<path d="M32938 4250 c-228 -16 -448 -59 -601 -116 -77 -30 -175 -92 -197
-126 -13 -20 -15 -212 -18 -1538 -1 -833 0 -1530 3 -1548 22 -124 278 -232
658 -278 158 -19 499 -22 642 -5 464 54 820 214 1095 490 275 275 433 634 481
1089 18 173 7 545 -21 702 -70 396 -243 721 -497 932 -249 207 -556 332 -943
382 -148 19 -440 27 -602 16z m603 -389 c418 -73 701 -266 863 -589 52 -102
101 -256 127 -392 30 -165 38 -496 15 -676 -68 -533 -315 -894 -737 -1076
-205 -88 -393 -122 -674 -122 -286 1 -430 32 -516 113 l-39 38 0 1286 0 1285
26 32 c15 17 38 37 53 45 53 27 161 56 258 70 142 21 471 13 624 -14z"/>
<path d="M35815 4185 l-25 -24 0 -1721 0 -1721 25 -24 24 -25 1046 0 c1168 0
1086 -5 1124 72 36 74 56 321 31 369 -14 25 -28 24 -268 -6 -317 -39 -437 -45
-987 -45 -493 0 -523 1 -538 18 -15 17 -17 72 -17 584 0 461 2 568 13 577 10
8 201 12 652 13 l638 3 21 28 c19 26 21 42 21 160 0 73 -3 144 -8 159 -17 61
22 58 -672 58 -348 0 -640 3 -649 6 -14 6 -16 65 -16 564 0 494 2 560 16 574
14 14 73 16 507 16 481 0 619 -6 842 -36 315 -41 296 -40 311 -19 29 40 10
293 -28 373 -37 77 38 72 -1058 72 l-981 0 -24 -25z"/>
<path d="M6480 3867 c-30 -16 -55 -40 -75 -72 l-30 -48 -5 -443 -5 -442 -31
-39 c-66 -81 -45 -77 -535 -83 l-436 -5 -48 -30 c-32 -20 -56 -45 -72 -74
l-23 -44 0 -426 c0 -423 0 -427 23 -471 13 -26 40 -57 65 -75 l44 -30 443 -5
443 -5 43 -30 c86 -61 83 -43 89 -535 5 -427 5 -436 27 -477 27 -50 73 -87
128 -102 53 -15 805 -15 858 0 47 13 102 60 128 110 18 36 19 62 19 446 0 254
4 422 11 446 13 49 63 105 114 128 37 17 76 19 455 19 382 0 418 2 455 19 22
10 52 31 67 47 57 61 58 67 58 506 0 250 -4 417 -11 441 -5 21 -24 53 -41 73
-62 71 -45 68 -534 74 l-441 5 -40 27 c-26 17 -50 45 -67 79 l-26 53 0 416 c0
411 0 416 -22 460 -13 24 -40 58 -61 74 l-39 31 -442 3 -442 3 -44 -24z"/>
</g>
</svg>
